<svg width="44" height="43" viewBox="0 0 44 43" fill="none" xmlns="http://www.w3.org/2000/svg">
<path d="M38.0122 13.4913C34.9484 7.37992 28.8137 3.58337 22 3.58337C12.1208 3.58337 4.08337 11.6208 4.08337 21.5C4.08337 31.3793 12.1208 39.4167 22 39.4167C28.8137 39.4167 34.9484 35.6202 38.0122 29.5088C38.2175 29.0993 38.2581 28.6268 38.1259 28.1883C37.9936 27.7498 37.6984 27.3786 37.3009 27.151L27.4055 21.5L37.2991 15.8509C38.125 15.3779 38.4386 14.3423 38.0122 13.4913ZM22.903 19.9449C22.6285 20.1013 22.4003 20.3275 22.2416 20.6007C22.0828 20.8738 21.9992 21.1841 21.9992 21.5C21.9992 21.816 22.0828 22.1263 22.2416 22.3994C22.4003 22.6725 22.6285 22.8988 22.903 23.0552L33.963 29.3708C32.6658 31.36 30.8919 32.9932 28.8025 34.1219C26.7132 35.2506 24.3748 35.8389 22 35.8334C14.097 35.8334 7.66671 29.4031 7.66671 21.5C7.66671 13.597 14.097 7.16671 22 7.16671C24.3746 7.16111 26.7128 7.74923 28.8021 8.87759C30.8915 10.006 32.6655 11.6387 33.963 13.6275L22.903 19.9449Z" fill="white"/>
<path d="M21.1041 16.125C22.5884 16.125 23.7916 14.9218 23.7916 13.4375C23.7916 11.9532 22.5884 10.75 21.1041 10.75C19.6199 10.75 18.4166 11.9532 18.4166 13.4375C18.4166 14.9218 19.6199 16.125 21.1041 16.125Z" fill="white"/>
</svg>
