<svg width="43" height="43" viewBox="0 0 43 43" fill="none" xmlns="http://www.w3.org/2000/svg">
<path d="M35.3238 9.45665L21.8863 5.4254C21.6841 5.36841 21.4714 5.35845 21.2647 5.3963C21.058 5.43415 20.8627 5.5188 20.6938 5.64376C20.5278 5.76982 20.3931 5.9323 20.2999 6.11869C20.2067 6.30508 20.1575 6.51038 20.1563 6.71876V24.9098C18.6851 23.5746 16.7679 22.8377 14.7813 22.8438C13.1866 22.8438 11.6278 23.3166 10.302 24.2025C8.9761 25.0885 7.94271 26.3476 7.33247 27.8209C6.72224 29.2941 6.56258 30.9152 6.87367 32.4792C7.18477 34.0431 7.95264 35.4797 9.08021 36.6073C10.2078 37.7349 11.6444 38.5027 13.2083 38.8138C14.7723 39.1249 16.3934 38.9653 17.8666 38.355C19.3399 37.7448 20.5991 36.7114 21.485 35.3855C22.3709 34.0597 22.8438 32.5009 22.8438 30.9063V16.5953L34.5512 20.1059C34.7534 20.1629 34.9661 20.1728 35.1728 20.135C35.3795 20.0971 35.5748 20.0125 35.7438 19.8875C35.9097 19.7615 36.0444 19.599 36.1376 19.4126C36.2308 19.2262 36.28 19.0209 36.2813 18.8125V10.75C36.28 10.4606 36.1864 10.1792 36.0142 9.94661C35.8421 9.71402 35.6002 9.54239 35.3238 9.45665ZM14.7813 36.2813C13.7182 36.2813 12.679 35.966 11.7951 35.3754C10.9111 34.7848 10.2222 33.9453 9.8154 32.9632C9.40858 31.981 9.30214 30.9003 9.50953 29.8576C9.71693 28.815 10.2288 27.8573 10.9806 27.1056C11.7323 26.3539 12.69 25.8419 13.7326 25.6345C14.7753 25.4271 15.856 25.5336 16.8382 25.9404C17.8203 26.3472 18.6598 27.0362 19.2504 27.9201C19.841 28.804 20.1563 29.8432 20.1563 30.9063C20.1518 32.3304 19.5841 33.695 18.5771 34.7021C17.57 35.7091 16.2054 36.2768 14.7813 36.2813ZM33.5938 16.9984L22.8438 13.7734V8.53282L33.5938 11.7578V16.9984Z" fill="white"/>
</svg>
