<svg width="44" height="43" viewBox="0 0 44 43" fill="none" xmlns="http://www.w3.org/2000/svg">
<path d="M38.0639 1.34375L28.0052 6.55078L18.683 2.51953L5.93614 3.35938L1.84375 39.1367L15.0226 38.0167L29.65 41.6562L42.1562 37.1211L38.0639 1.34375ZM36.9506 3.43261L40.701 36.2194L29.908 40.1331L29.8482 38.874L39.3693 35.2795L36.1161 5.31856L28.4265 8.9655L28.3741 7.87303L28.6233 7.7447L36.9506 3.43261ZM29.132 23.8173C29.2811 23.5002 29.4276 23.0547 29.4975 22.4299C29.4975 22.4299 30.2379 22.4662 31.1489 24.4515C31.1489 24.4515 31.5467 24.4119 31.3485 23.1159C31.3485 23.1159 32.7708 22.5427 32.0035 20.0225C32.0035 20.0225 33.1968 21.666 32.8004 19.5294C32.8004 19.5294 34.1092 17.925 32.5457 16.858C32.5457 16.858 32.5995 15.6748 33.5395 15.8267C33.5395 15.8267 34.4787 13.3837 34.0259 16.2842C34.0259 16.2842 34.0528 16.858 34.6501 17.505C34.6501 17.505 34.9074 16.5516 34.4512 15.5237C34.4512 15.5237 35.3911 13.7647 35.3051 12.2402C35.3051 12.2402 32.2602 13.3696 28.8719 13.0324C28.8719 13.0324 29.0372 12.4021 28.5743 12.0481L28.4796 10.056L28.5602 10.0177L35.2682 6.837L38.2836 34.613L29.7985 37.8172L29.132 23.8173ZM27.897 11.9963C27.547 12.4955 26.5755 14.0308 27.166 14.9499C27.166 14.9499 26.8798 16.9407 26.4807 14.0368C26.4807 14.0368 25.8283 15.7508 24.9455 15.3685C24.9455 15.3685 24.703 17.1032 24.1473 15.9409C24.1473 15.9409 24.6022 16.1324 24.7023 15.5982C24.7023 15.5982 23.4197 14.2243 22.6531 16.3017C22.6531 16.3017 22.0269 16.551 22.2694 17.5252C22.2694 17.5252 22.7088 16.7216 22.9373 17.9451C22.9373 17.9451 23.1798 17.7543 23.2813 16.1882C23.2813 16.1882 23.89 15.8845 23.4197 17.1221C23.4197 17.1221 24.8145 17.1442 22.6531 18.3812C22.6531 18.3812 22.5335 18.361 22.4394 17.8867C22.4394 17.8867 22.1122 19.0288 21.4417 19.434C21.4417 19.434 21.5989 19.8902 21.1017 20.0998C21.1017 20.0998 20.8323 20.8066 21.4732 20.8066C21.4732 20.8066 22.0275 19.1081 23.081 20.4445C23.081 20.4445 23.2819 20.3686 22.9682 19.7C22.9682 19.7 23.5218 19.9124 23.7361 20.7878C23.7361 20.7878 24.0781 20.7287 24.1325 19.9675C24.1325 19.9675 24.5619 18.9946 25.2599 20.1401C25.2599 20.1401 24.3334 19.872 24.0929 20.8066C24.0929 20.8066 24.531 20.6151 24.8037 20.8832C24.8037 20.8832 24.8313 21.3193 24.5518 21.4879C24.6727 21.715 24.8037 21.9327 24.9865 22.1168C25.0374 22.1642 25.0704 22.2278 25.0798 22.2967C25.0892 22.3656 25.0745 22.4357 25.0382 22.495C25.5314 23.3389 26.4424 24.4623 27.08 22.6691C27.08 22.6691 26.2268 23.1535 25.9412 21.8171C25.9412 21.8171 27.6632 22.0362 28.4574 23.7635L29.1259 37.838L15.7341 34.0822L15.935 32.0955C16.2131 32.8083 16.539 33.0979 16.539 33.0979C16.1607 29.9972 18.3981 28.0105 18.3981 28.0105C18.8328 25.882 17.7275 24.9266 16.7029 24.4966L17.229 19.2909C17.44 19.0282 17.5643 18.8528 17.5643 18.8528C17.4884 18.5915 17.4145 18.3623 17.3439 18.1527L17.8539 13.1016C18.2825 13.6236 18.3316 14.098 18.2113 14.5293C17.6597 16.5133 18.3692 17.1214 18.3692 17.1214C18.7999 15.4457 20.278 15.1783 20.278 15.1783C20.1933 13.6115 21.103 11.8304 21.103 11.8304C20.1134 10.1299 18.6977 11.2768 17.956 12.0884L18.0138 11.518C18.1656 11.3224 18.3242 11.1095 18.4955 10.8662C18.4955 10.8662 18.3537 10.7688 18.0964 10.6976L18.5479 6.22627L27.7418 10.0371L27.8063 10.064L27.897 11.9963ZM17.4279 10.6291C16.9697 10.6506 16.3831 10.8085 15.6931 11.2855C15.6931 11.2855 15.3652 14.2968 17.2478 12.4095L17.0375 14.493C16.7916 13.6706 16.2084 13.3844 16.2084 13.3844C15.6373 13.7298 15.6945 14.1866 15.6945 14.1866C16.2125 14.2646 16.5289 14.8881 16.715 15.4726C16.6102 15.6332 16.4308 15.8166 16.1211 15.8468C16.1211 15.8468 16.4819 16.389 16.8313 16.5409L16.793 16.9145C15.98 15.6963 15.6279 18.144 15.6279 18.144C13.6184 15.9046 16.1614 14.7839 16.1614 14.7839C14.6047 14.1262 13.8837 12.2409 13.8837 12.2409C13.8078 13.412 13.3516 13.3602 13.3516 13.3602C9.78397 11.2747 9.14166 14.6334 9.14166 14.6334C9.70805 16.4126 8.49397 16.6161 8.49397 16.6161C9.66975 16.819 10.2765 15.1911 10.2765 15.1911C12.7073 16.4126 11.4166 20.7885 11.4166 20.7885C12.3646 21.3461 12.6307 23.1797 12.6307 23.1797C13.2912 23.3799 13.9677 23.7844 14.4421 24.1049C14.5341 24.0222 14.6289 23.9436 14.7283 23.8704C13.6197 23.087 13.6177 21.8185 13.6177 21.8185C14.6235 21.8185 15.6931 20.9517 16.4651 20.1549L16.0485 24.2822C15.861 24.2351 15.671 24.1985 15.4795 24.1727C15.3003 24.2586 15.1321 24.3655 14.9782 24.4912L15.0602 24.555C13.9422 26.703 15.4539 27.5643 15.7045 27.6886L15.0629 34.0379L6.16995 34.7332L9.13628 6.63947L17.8827 6.12481L17.4279 10.6291ZM15.6313 35.1008L29.1756 38.8995L29.2361 40.1687L15.4653 36.7422L15.6313 35.1008ZM27.7015 7.88378L27.7526 8.95206L18.6541 5.18083L18.771 4.02117L27.4718 7.78434L27.7015 7.88378ZM7.14417 4.62653L18.1072 3.90427L17.9855 5.10961L8.22388 5.68339L5.0412 35.8331L14.9614 35.0557L14.7962 36.6871L3.36555 37.6593L7.14417 4.62653Z" fill="white"/>
<path d="M22.0416 24.6021C22.0416 24.6021 23.4673 24.8688 22.8969 27.6161C22.8969 27.6161 23.1247 29.7574 24.375 29.5618C24.375 29.5618 24.7164 26.4719 26.3107 24.1049C26.3107 24.1049 25.6644 24.7485 24.9314 22.614C24.8205 22.6946 24.67 22.7134 24.5444 22.5885C24.2286 22.2733 24.0378 21.8763 23.8322 21.4772C23.803 21.4198 23.7911 21.3551 23.7979 21.2911C22.7605 20.9041 20.6596 20.5157 20.3619 23.5707C20.3626 23.5707 20.7597 25.6737 22.0416 24.6021ZM21.3886 17.4654C21.4866 18.8414 21.6707 19.2593 21.9119 18.6876C22.1545 18.1205 21.3886 17.4654 21.3886 17.4654ZM20.9579 18.7641C20.9579 18.7641 21.359 18.705 21.2441 18.2004C21.2441 18.2004 20.9579 18.23 20.9579 18.7641ZM20.8034 15.998C20.8034 15.998 19.7922 15.998 20.1496 16.5147C20.505 17.03 20.8034 15.998 20.8034 15.998ZM25.8565 28.5332C25.8565 28.5332 26.1656 27.903 26.1555 26.9315C26.1562 26.9315 25.1726 28.0548 25.8565 28.5332ZM32.2299 24.5839C32.2299 24.5839 31.5177 25.2336 31.6481 25.8256C31.7764 26.4195 32.4013 25.7086 32.2299 24.5839ZM35.078 26.6849C35.3904 26.138 33.3667 25.4607 33.3667 25.4607C33.7665 26.0533 34.7945 27.1727 35.078 26.6849ZM32.8145 26.8018C33.2895 25.9888 31.3766 26.3778 31.3766 26.3778C31.3766 26.3778 32.6297 27.1229 32.8145 26.8018ZM33.5663 26.9711C33.5663 26.9711 33.1833 27.8277 31.7603 28.1885C31.7603 28.1885 32.0606 28.8772 31.7603 30.1759C31.7603 30.1759 33.1968 28.3431 34.0245 30.9943C34.0245 30.9943 34.7347 31.3799 35.2325 28.9793C35.2325 28.9793 34.6352 28.1146 34.4364 26.8851C34.437 26.8844 34.2395 28.46 33.5663 26.9711ZM33.8471 19.1552C33.9378 19.0793 34.0084 19.0517 34.0084 19.0517C33.3117 17.925 33.5663 19.5489 33.5663 19.5489C33.6113 19.4421 33.6644 19.3601 33.7188 19.2909C33.7558 19.772 33.6402 20.4888 32.889 21.1701C32.8884 21.1701 34.4995 20.5628 33.8471 19.1552ZM21.5511 10.7198C21.9025 9.89607 20.798 8.95813 20.798 8.95813C20.9397 10.9381 21.2024 11.5428 21.5511 10.7198ZM20.1778 10.828C20.1778 10.828 20.7496 10.7433 20.5877 10.019C20.5877 10.019 20.1778 10.06 20.1778 10.828Z" fill="white"/>
</svg>
