<svg width="43" height="43" viewBox="0 0 43 43" fill="none" xmlns="http://www.w3.org/2000/svg">
<path d="M38.9688 6.71875H4.03125C3.28799 6.71875 2.6875 7.31924 2.6875 8.0625V34.9375C2.6875 35.6808 3.28799 36.2812 4.03125 36.2812H38.9688C39.712 36.2812 40.3125 35.6808 40.3125 34.9375V8.0625C40.3125 7.31924 39.712 6.71875 38.9688 6.71875ZM37.2891 33.2578H5.71094V31.5823L11.5269 24.683L17.8299 32.1576L27.6351 20.5342L37.2891 31.9812V33.2578ZM37.2891 27.8072L27.8912 16.6625C27.7568 16.5029 27.5133 16.5029 27.3789 16.6625L17.8299 27.9836L11.783 20.8155C11.6486 20.656 11.4051 20.656 11.2707 20.8155L5.71094 27.4083V9.74219H37.2891V27.8072ZM12.7656 19.1484C13.2509 19.1484 13.7314 19.0529 14.1798 18.8671C14.6281 18.6814 15.0355 18.4092 15.3786 18.0661C15.7217 17.723 15.9939 17.3156 16.1796 16.8673C16.3654 16.4189 16.4609 15.9384 16.4609 15.4531C16.4609 14.9678 16.3654 14.4873 16.1796 14.039C15.9939 13.5907 15.7217 13.1833 15.3786 12.8401C15.0355 12.497 14.6281 12.2248 14.1798 12.0391C13.7314 11.8534 13.2509 11.7578 12.7656 11.7578C11.7856 11.7578 10.8456 12.1471 10.1526 12.8401C9.45964 13.5331 9.07031 14.4731 9.07031 15.4531C9.07031 16.4332 9.45964 17.3731 10.1526 18.0661C10.8456 18.7591 11.7856 19.1484 12.7656 19.1484ZM12.7656 14.2773C13.4165 14.2773 13.9414 14.8022 13.9414 15.4531C13.9414 16.104 13.4165 16.6289 12.7656 16.6289C12.1147 16.6289 11.5898 16.104 11.5898 15.4531C11.5898 14.8022 12.1147 14.2773 12.7656 14.2773Z" fill="#00A3FF"/>
</svg>
